<svg xmlns="http://www.w3.org/2000/svg" width="326" height="121" fill="none" viewBox="0 0 326 121">
  <rect width="326" height="121" fill="#EFD3A7" rx="10"/>
  <path fill="#8B5100" d="M8 102h311v12H8z"/>
  <path fill="#931824" d="M14 21h24v81H14z"/>
  <path fill="#282167" d="M62 21h24v81H62z"/>
  <path fill="#931824" d="M86 29h24v73H86z"/>
  <path fill="#1D6E27" d="M110 36h24v66h-24z"/>
  <path fill="#282167" d="M134 21h22v81h-22z"/>
  <path fill="#931824" d="M156 26h21v76h-21z"/>
  <path fill="#1D6E27" d="M177 36h22v66h-22z"/>
  <path fill="#282167" d="M199 21h21v81h-21z"/>
  <path fill="#931824" d="M221 32.5 239.187 22l40.5 70.148-18.187 10.5z"/>
  <path fill="#1D6E27" d="M38 39h24v63H38z"/>
</svg>
