<svg xmlns="http://www.w3.org/2000/svg" width="140" height="22" fill="none" viewBox="0 0 140 22">
  <path fill="#8B5100" d="M10.24 21.76c-1.152 0-2.09-.288-2.816-.864A3.127 3.127 0 0 1 6.56 20H6.4l-1.12 1.44H2.56V4.48c0-1.088-.15-1.888-.448-2.4-.299-.533-.896-.8-1.792-.8H0V.32h3.84c.768 0 1.355.128 1.76.384s.693.683.864 1.28c.17.576.256 1.408.256 2.496v2.56c.277-.17.576-.33.896-.48.875-.32 1.696-.48 2.464-.48 2.219 0 3.915.736 5.088 2.208 1.195 1.45 1.792 3.328 1.792 5.632s-.587 4.192-1.76 5.664c-1.152 1.45-2.805 2.176-4.96 2.176Zm-.64-1.44c1.045 0 1.813-.576 2.304-1.728.49-1.152.736-2.71.736-4.672 0-4.267-1.067-6.4-3.2-6.4-.619 0-1.27.16-1.952.48-.299.17-.555.33-.768.48v9.76c.192.427.427.779.704 1.056.64.683 1.365 1.024 2.176 1.024Zm17.372 1.44c-1.557 0-2.923-.341-4.096-1.024a7.168 7.168 0 0 1-2.656-2.816c-.619-1.195-.928-2.528-.928-4s.31-2.795.928-3.968a6.895 6.895 0 0 1 2.656-2.816c1.173-.704 2.539-1.056 4.096-1.056s2.912.352 4.064 1.056a6.835 6.835 0 0 1 2.688 2.816c.619 1.173.928 2.496.928 3.968s-.31 2.805-.928 4c-.619 1.173-1.515 2.112-2.688 2.816-1.152.683-2.507 1.024-4.064 1.024Zm0-1.44c1.088 0 1.92-.587 2.496-1.76.576-1.173.864-2.72.864-4.64 0-1.92-.288-3.467-.864-4.64-.576-1.173-1.408-1.76-2.496-1.76s-1.92.587-2.496 1.76c-.576 1.173-.864 2.72-.864 4.64 0 1.92.288 3.467.864 4.64.576 1.173 1.408 1.76 2.496 1.76Zm17.656 1.44c-1.557 0-2.922-.341-4.096-1.024a7.168 7.168 0 0 1-2.656-2.816c-.618-1.195-.928-2.528-.928-4s.31-2.795.928-3.968a6.895 6.895 0 0 1 2.656-2.816c1.174-.704 2.539-1.056 4.096-1.056 1.558 0 2.912.352 4.064 1.056a6.834 6.834 0 0 1 2.688 2.816c.619 1.173.928 2.496.928 3.968s-.31 2.805-.928 4c-.618 1.173-1.514 2.112-2.688 2.816-1.152.683-2.506 1.024-4.064 1.024Zm0-1.44c1.088 0 1.92-.587 2.496-1.76.576-1.173.864-2.72.864-4.64 0-1.92-.288-3.467-.864-4.64-.576-1.173-1.408-1.76-2.496-1.76s-1.92.587-2.496 1.76c-.576 1.173-.864 2.72-.864 4.64 0 1.92.288 3.467.864 4.64.576 1.173 1.408 1.76 2.496 1.76Zm22.745 1.44a5.845 5.845 0 0 1-2.593-.576c-.767-.405-1.493-1.067-2.175-1.984l-3.072-4.032v6.272h-4.16V4.48c0-1.088-.15-1.888-.448-2.4-.3-.533-.896-.8-1.792-.8h-.32V.32h3.84c.767 0 1.354.128 1.76.384.405.256.693.683.864 1.28.17.576.255 1.408.255 2.496v9.12l3.873-4.736c.725-.875 1.407-1.504 2.047-1.888.64-.384 1.494-.576 2.56-.576h.64v.832c-.64 0-1.216.128-1.728.384s-1.002.661-1.472 1.216l-3.103 3.776 4.256 5.632c1.023 1.387 2.016 2.197 2.975 2.432v.768c-.17.085-.49.16-.96.224a8.862 8.862 0 0 1-1.248.096Z"/>
  <path fill="#000" d="M76.937 21.76c-2.496 0-4.214-.437-5.152-1.312-.342-.32-.555-.768-.64-1.344-.086-.597-.128-1.419-.128-2.464h1.12c.192 1.11.63 2.005 1.312 2.688.682.661 1.632.992 2.848.992 2.133 0 3.2-.725 3.2-2.176 0-.555-.235-1.013-.704-1.376-.448-.363-1.174-.768-2.176-1.216l-1.664-.704c-1.366-.597-2.39-1.248-3.072-1.952-.683-.704-1.024-1.557-1.024-2.56 0-1.344.554-2.39 1.664-3.136 1.13-.747 2.602-1.12 4.416-1.12 2.496 0 4.213.437 5.152 1.312.341.32.554.768.64 1.344.085.576.128 1.397.128 2.464h-1.12c-.192-1.11-.63-1.995-1.312-2.656-.683-.683-1.632-1.024-2.848-1.024-.918 0-1.6.203-2.048.608-.448.384-.672.907-.672 1.568 0 .533.181.981.544 1.344.384.341.96.683 1.728 1.024l1.92.8c1.578.661 2.71 1.333 3.392 2.016.704.661 1.056 1.536 1.056 2.624 0 1.365-.608 2.421-1.824 3.168-1.195.725-2.774 1.088-4.736 1.088Zm9.56-17.28c0-1.088-.149-1.888-.448-2.4-.298-.533-.896-.8-1.792-.8h-.32V.32h3.84c.769 0 1.355.128 1.76.384.406.256.694.683.864 1.28.171.576.257 1.408.257 2.496v2.816c.192-.15.522-.352.992-.608.853-.405 1.695-.608 2.527-.608 1.728 0 3.168.448 4.32 1.344 1.174.875 1.76 2.379 1.76 4.512v9.504h-4.16v-9.344c0-1.536-.277-2.656-.831-3.36-.534-.704-1.217-1.056-2.049-1.056-.576 0-1.183.192-1.823.576-.257.15-.502.33-.737.544v12.64h-4.16V4.48Zm24.031 17.28c-1.472 0-2.763-.341-3.872-1.024a7.076 7.076 0 0 1-2.592-2.784c-.598-1.195-.896-2.539-.896-4.032 0-1.664.298-3.083.896-4.256.618-1.173 1.461-2.059 2.528-2.656 1.066-.619 2.272-.928 3.616-.928 1.322 0 2.517.267 3.584.8a6.211 6.211 0 0 1 2.528 2.272c.618.96.928 2.07.928 3.328 0 .405-.022.864-.064 1.376l-.064.64h-9.632c0 2.027.309 3.51.928 4.448.618.917 1.482 1.376 2.592 1.376 1.024 0 1.877-.224 2.56-.672.704-.47 1.376-1.13 2.016-1.984l.992.736a8.36 8.36 0 0 1-2.336 2.4c-.918.64-2.155.96-3.712.96Zm2.4-8.704c0-2.005-.235-3.424-.704-4.256-.47-.853-1.142-1.28-2.016-1.28-.811 0-1.472.437-1.984 1.312-.491.853-.736 2.261-.736 4.224h5.44Zm7.385-8.576c0-1.088-.149-1.888-.448-2.4-.299-.533-.896-.8-1.792-.8h-.32V.32h3.84c.768 0 1.355.128 1.76.384s.693.683.864 1.28c.171.576.256 1.408.256 2.496v16.96h-4.16V4.48Zm8.506 3.36h-1.92V6.4h1.92v-.864c0-1.813.512-3.19 1.536-4.128C131.4.469 132.968 0 135.059 0c.597 0 1.163.053 1.696.16.555.085.96.213 1.216.384.555.32.971.779 1.248 1.376l-1.28 1.12a3.493 3.493 0 0 0-1.184-1.184 2.963 2.963 0 0 0-1.536-.416c-.747 0-1.312.31-1.696.928-.363.619-.544 1.675-.544 3.168V6.4h4.16v1.44h-4.16v13.6h-4.16V7.84Z"/>
</svg>
